<svg width="241" height="225" viewBox="0 0 241 225" fill="none" xmlns="http://www.w3.org/2000/svg">
<path d="M79.2803 22.785C81.448 21.8626 83.5825 20.851 85.7896 20.0305C95.0701 16.5868 104.698 14.7372 114.557 14.2051C125.841 13.5962 136.925 14.9559 147.751 18.2371C159.691 21.856 170.566 27.5444 180.367 35.2783C188.86 41.9809 196.044 49.8926 201.957 58.9601C202.356 59.5722 202.983 60.1224 202.455 61.057C202.239 61.4397 202.45 62.0667 202.469 62.6887C203.031 62.5731 203.495 62.4782 204.121 62.349C205.497 64.9266 206.887 67.5249 208.35 70.2664C206.982 70.4587 205.833 70.6797 204.677 70.7415C204.378 70.7584 203.941 70.3462 203.756 70.022C201.915 66.789 200.266 63.4354 198.256 60.3154C196.533 57.6402 194.477 55.1674 192.454 52.6991C182.9 41.0384 171.209 32.1699 157.444 26.0662C146.634 21.2748 135.311 18.6514 123.495 18.1407C117.009 17.8601 110.59 18.3779 104.169 19.2734C99.8999 19.8688 95.7679 20.9826 91.6992 22.2706C87.6241 23.5618 83.5898 25.0784 79.7173 26.8857C75.8152 28.7086 72.0587 30.8862 68.3732 33.1294C63.4155 36.1509 58.9572 39.8504 54.7041 43.8071C51.8787 46.4351 49.289 49.2771 46.8706 52.2667C46.0576 53.2733 45.3258 53.7857 44.0838 53.2349C43.8888 53.1479 43.6503 53.1563 43.3747 53.1126C42.7651 54.0884 43.3677 55.0128 43.4199 55.9367C43.4341 56.2001 43.4689 56.5293 43.3361 56.7219C42.1355 58.4968 40.8995 60.2471 39.6056 62.1061C38.77 61.425 38.0316 61.8903 37.6701 62.6001C37.498 62.9354 38.015 63.6247 38.2976 64.3515C35.145 69.7209 32.2595 75.5607 30.2879 81.7938C29.0311 85.7687 28.0568 89.8366 26.9838 93.8681C26.8092 94.5265 26.3912 94.8186 25.934 95.2695C24.9175 96.275 23.7046 95.8506 22.4428 96.426C22.8205 94.499 23.1217 92.7428 23.5147 91.0058C26.4915 77.8701 31.9041 65.8336 39.77 54.9075C45.4403 47.0288 52.1378 40.1544 59.8252 34.2461C60.2352 33.9299 60.6874 33.6216 61.1709 33.4552C62.1208 33.1295 63.2154 33.0535 63.3476 31.7032C63.3593 31.5757 63.6225 31.4655 63.7765 31.3592C68.4989 28.126 73.4614 25.3166 78.6634 22.9289C78.8651 22.8365 79.0951 22.7996 79.3102 22.7373C79.269 22.8346 79.2161 22.929 79.1893 23.0312C79.0943 23.3786 79.0085 23.727 78.9183 24.076C79.2642 24.1167 79.6822 24.2959 79.9402 24.1658C80.3132 23.9761 80.5696 23.5579 80.8763 23.238C80.6349 23.0317 80.4196 22.7347 80.1425 22.6478C79.8897 22.5712 79.567 22.7287 79.2749 22.7789L79.2803 22.785ZM68.2895 32.1115C69.0562 31.2624 69.8357 30.423 70.5535 29.535C70.5965 29.4832 70.1781 28.8464 69.9128 28.7944C69.166 28.6477 67.3398 29.9523 67.0905 30.6967C66.8012 31.5633 67.1722 32.026 68.2895 32.1115ZM86.4321 21.7913C87.7167 22.4665 88.9172 22.3802 89.6191 21.4441C89.875 21.1038 89.9707 20.436 89.8122 20.0555C89.7033 19.8008 89.0004 19.6411 88.597 19.6955C87.4475 19.8524 86.8146 20.6621 86.4321 21.7913ZM25.0871 89.9588C26.306 90.2635 27.1417 89.9058 27.1685 88.9753C27.1804 88.6052 26.7521 88.011 26.3942 87.8852C25.808 87.6792 25.1432 88.7657 25.0871 89.9588ZM109.646 17.5311C109.946 17.0497 110.223 16.7568 110.29 16.4202C110.313 16.2979 109.764 15.8809 109.599 15.9407C109.273 16.0575 109.033 16.4138 108.758 16.6698C108.999 16.9037 109.239 17.1376 109.646 17.5311Z" fill="#FF6060"/>
<path d="M102.25 209.523C102.736 209.034 103.119 208.721 103.407 208.333C103.611 208.06 103.68 207.688 103.81 207.361C103.409 207.209 102.95 206.853 102.621 206.947C101.998 207.129 101.354 207.473 100.888 207.923C99.9286 208.847 98.967 208.975 97.6637 208.671C85.0937 205.738 73.5235 200.575 62.9668 193.151C56.7838 188.803 51.1611 183.811 46.1446 178.144C46.047 178.034 45.9653 177.908 45.9261 177.857C46.9438 177.055 47.9412 176.272 48.8743 175.534C51.6252 178.177 54.4194 181.079 57.4396 183.721C71.004 195.582 86.7019 202.963 104.464 205.922C105.612 206.113 106.777 206.214 107.922 206.417C108.608 206.538 109.422 206.286 109.711 207.447C109.859 208.046 110.691 207.79 111.236 207.366C111.561 207.112 112.031 206.865 112.419 206.89C119.769 207.393 127.078 207.093 134.36 205.971C134.798 205.903 135.311 206.126 135.752 206.304C136.5 206.606 137.106 206.659 137.486 205.772C137.567 205.585 137.804 205.389 138.005 205.338C140.12 204.805 142.243 204.298 144.365 203.796C144.575 203.746 144.852 203.701 145.018 203.794C145.695 204.179 146.022 203.856 146.529 203.383C147.011 202.933 147.793 202.777 148.464 202.561C159.252 199.119 169.074 193.86 177.946 186.824C190.302 177.024 199.61 164.857 205.989 150.433C206.734 148.747 207.389 147.023 208.121 145.23C208.993 145.572 209.707 145.256 209.846 144.344C209.907 143.944 209.395 143.458 209.116 142.964C210.135 138.762 211.197 134.341 212.301 129.932C212.369 129.666 212.754 129.351 213.038 129.293C214.104 129.079 215.189 128.965 216.517 128.779C216.106 130.88 215.724 132.837 215.327 134.87C214.694 134.769 214.157 134.684 213.514 134.58C213.286 135.77 213.335 136.797 214.074 137.767C214.27 138.025 214.354 138.508 214.266 138.829C211.783 147.934 208.032 156.493 203.064 164.506C196.503 175.086 188.243 184.118 178.282 191.575C170.061 197.728 161.138 202.599 151.354 205.725C146.457 207.289 141.403 208.361 136.418 209.645C136.021 209.747 135.604 209.766 135.207 209.822C134.488 208.264 134.252 208.27 132.932 209.41C132.376 209.891 131.624 210.342 130.918 210.42C121.525 211.486 112.154 211.312 102.828 209.673C102.692 209.649 102.56 209.603 102.245 209.519L102.25 209.523ZM195.356 171.458C196.669 171.734 197.422 171.402 197.438 170.429C197.445 170.053 197.006 169.465 196.64 169.333C196.083 169.135 195.383 170.317 195.356 171.458ZM202.371 159.151C201.971 159.983 201.669 160.462 201.535 160.987C201.498 161.134 202.141 161.616 202.166 161.596C202.639 161.175 203.089 160.718 203.468 160.214C203.496 160.176 202.951 159.71 202.371 159.153L202.371 159.151ZM96.3287 205.315C95.4525 205.433 94.6967 205.629 94.6059 206.607C94.5974 206.693 95.3403 207.007 95.6753 206.937C96.4867 206.764 96.9425 206.285 96.3287 205.315V205.315ZM159.874 199.404L160.045 199.957C160.58 199.939 161.116 199.921 161.65 199.903L161.57 198.244C161.447 198.197 161.322 198.153 161.199 198.106C160.757 198.539 160.315 198.969 159.874 199.402L159.874 199.404Z" fill="#FF6060"/>
<path d="M63.8456 154.265L63.2991 150.376C63.724 150.296 64.1127 150.202 64.5069 150.147C103.899 144.609 143.294 139.077 182.682 133.511C183.808 133.353 184.092 133.679 184.206 134.722C184.488 137.296 184.537 137.303 181.973 137.663C149.149 142.276 116.326 146.885 83.5015 151.495C77.4285 152.349 71.356 153.207 65.2832 154.063C64.8443 154.124 64.4054 154.186 63.8456 154.265V154.265ZM105.274 148.298C106.648 146.863 106.704 146.324 105.662 145.082C104.152 145.969 103.986 147.164 105.274 148.298ZM83.2685 150.634C83.9654 150.133 84.964 149.942 84.6326 148.852C84.5728 148.654 83.6329 148.466 83.3441 148.653C82.6303 149.115 82.5524 149.828 83.2685 150.634ZM93.7601 148.056C93.8864 148.077 94.0123 148.096 94.1386 148.117C94.24 147.783 94.5246 147.322 94.399 147.143C94.2102 146.872 93.7405 146.796 93.3897 146.639C93.3227 146.731 93.2556 146.823 93.1912 146.917C93.3816 147.297 93.5696 147.676 93.7601 148.056Z" fill="#FF6060"/>
<path d="M175.762 74.8004L55.1218 91.7552L54.5908 87.9766C54.9824 87.9033 55.4047 87.805 55.8324 87.7449C84.4921 83.7216 113.155 79.7025 141.814 75.677C152.509 74.1739 163.207 72.675 173.895 71.1248C174.992 70.9661 175.391 71.251 175.43 72.3255C175.457 73.1064 175.633 73.8826 175.762 74.8004ZM141.777 77.6866C142.214 77.1401 142.499 76.7798 142.786 76.4213C142.501 76.2418 142.131 75.8521 141.943 75.9266C141.516 76.0941 141.177 76.4896 140.804 76.7914C141.064 77.0318 141.323 77.2721 141.775 77.6892L141.777 77.6866Z" fill="#FF6060"/>
<path d="M193.489 153.686L193.72 155.333C194.006 155.355 194.29 155.376 194.63 155.404C194.588 155.547 194.573 155.698 194.505 155.815C191.545 160.997 188.07 165.808 184.108 170.262C180.089 174.778 175.669 178.863 170.789 182.439C170 183.017 169.209 183.59 168.391 184.124C167.717 184.562 167.171 185.24 166.112 184.792C165.738 184.634 164.832 185.143 164.489 185.592C161.762 189.183 157.564 190.348 153.782 192.181C152.726 192.693 151.516 192.875 150.408 193.294C148.813 193.898 147.279 194.688 145.659 195.211C139.514 197.195 133.218 198.48 126.773 198.947C124.135 199.137 121.486 199.28 118.841 199.259C116.099 199.234 113.35 199.088 110.624 198.805C107.937 198.528 105.254 198.107 102.603 197.578C99.9535 197.051 97.3105 196.427 94.7228 195.644C84.0174 192.41 74.2741 187.313 65.5302 180.309C60.2473 176.078 55.4915 171.323 51.3597 165.955C50.9769 165.457 50.723 164.772 50.6513 164.148C50.5699 163.439 50.2786 163.105 49.6626 162.816C49.1248 162.564 48.5368 162.198 48.2249 161.718C46.4497 158.982 44.7496 156.196 43.0071 153.4C44.8223 152.634 45.0077 152.702 45.821 154.119C55.9716 171.798 70.5154 184.389 89.501 191.733C103.831 197.277 118.644 198.671 133.755 196.062C151.228 193.046 166.315 185.246 178.983 172.787C179.664 172.115 180.525 171.612 181.146 170.893C182.583 169.224 184.011 167.536 185.279 165.74C187.885 162.056 190.385 158.298 192.925 154.568C193.069 154.356 193.2 154.134 193.484 153.682L193.489 153.686Z" fill="#FF6060"/>
<path d="M136.545 179.445C134.228 178.59 132.167 177.887 130.158 177.062C129.121 176.636 128.318 176.641 127.397 177.381C125.673 178.765 123.844 180.018 121.828 181.495C121.845 180.514 121.842 179.761 121.878 179.01C121.959 177.281 122.098 175.554 122.127 173.825C122.133 173.467 121.844 172.984 121.543 172.76C119.694 171.4 117.803 170.101 115.927 168.777C115.785 168.675 115.66 168.549 115.369 168.297C117.739 167.648 119.923 166.984 122.141 166.471C123.156 166.237 123.638 165.748 123.924 164.763C124.55 162.6 125.304 160.473 126.077 158.113C127.163 159.715 128.158 161.152 129.12 162.607C130.779 165.113 130.771 165.105 133.747 165.028C135.496 164.983 137.249 164.991 139.265 164.971C137.678 166.919 136.283 168.682 134.827 170.395C134.197 171.138 133.916 171.772 134.345 172.792C135.056 174.488 135.553 176.274 136.133 178.025C136.26 178.41 136.361 178.803 136.547 179.443L136.545 179.445ZM132.984 170.42C133.425 169.885 133.725 169.518 134.027 169.15C133.695 168.968 133.302 168.575 133.051 168.654C132.656 168.773 132.359 169.211 132.021 169.515C132.286 169.763 132.55 170.012 132.986 170.422L132.984 170.42Z" fill="#FF6060"/>
<path d="M109.874 43.1328C111.308 45.2148 112.657 47.128 113.956 49.0757C114.366 49.6884 114.768 49.998 115.581 49.9661C117.971 49.8751 120.366 49.9184 123.05 49.9073C121.606 51.7095 120.423 53.3997 119.016 54.8742C117.953 55.9869 117.8 56.9625 118.38 58.3569C119.156 60.2225 119.697 62.1875 120.426 64.3708C118.691 63.7428 117.106 63.3639 115.718 62.6186C113.443 61.4006 111.582 61.5798 109.707 63.4107C108.59 64.5012 107.175 65.2858 105.891 66.2054C105.866 66.2226 105.819 66.211 105.624 66.2246C105.705 64.282 105.627 62.3275 105.908 60.4278C106.17 58.652 105.627 57.5865 104.096 56.7171C102.597 55.866 101.239 54.7664 99.8248 53.7685C99.6575 53.6502 99.5225 53.4861 99.2353 53.213C101.262 52.6536 103.107 52.0168 105.006 51.6537C106.698 51.3312 107.661 50.6057 108.041 48.8247C108.447 46.9256 109.217 45.1037 109.869 43.1312L109.874 43.1328ZM113.931 55.1176C114.603 54.7989 115.256 54.4897 115.684 54.2854C116.051 54.7189 116.331 55.2836 116.552 55.2617C116.986 55.2189 117.485 54.9315 117.78 54.5926C118.02 54.3164 118.068 53.8153 118.069 53.4148C118.07 53.0989 117.927 52.5676 117.741 52.5158C117.459 52.4388 116.901 52.5995 116.787 52.8239C116.431 53.526 115.934 53.4517 115.302 53.4055C114.15 53.318 113.755 53.838 113.928 55.1179L113.931 55.1176Z" fill="#FF6060"/>
<path d="M195.819 71.9452C193.916 72.4094 193.926 72.4034 193.05 70.8676C192.511 69.9206 191.956 68.9781 191.372 68.058C190.826 67.1943 190.109 66.3843 191.264 65.0482C189.228 65.4785 188.837 64.0759 188.09 63.1147C186.381 60.9157 184.662 58.725 183.075 56.6943C183.145 56.069 183.202 55.5529 183.26 55.0346C182.745 54.9993 182.232 54.9663 181.521 54.9174C179.435 52.9546 177.194 50.7251 174.826 48.644C167.371 42.0905 158.998 37.0092 149.707 33.5557C145.703 32.0683 141.525 31.0515 137.417 29.8487C136.712 29.6434 135.98 29.5861 136.202 28.5299C136.235 28.3743 135.945 28.1496 135.804 27.9566C135.625 28.1145 135.389 28.2414 135.285 28.4392C135.165 28.6596 135.164 28.9435 135.078 29.3583C133.783 28.8996 132.244 29.402 131.409 28.2928C130.553 28.3582 129.864 28.4917 129.187 28.4496C125.75 28.2393 122.316 27.985 118.896 27.745C119.015 27.2089 119.15 26.6087 119.287 25.9923C150.341 25.3277 181.397 43.8261 195.819 71.9452V71.9452Z" fill="#FF6060"/>
<path d="M139.219 41.938C140.53 43.8793 141.69 45.5331 142.776 47.2338C143.168 47.8468 143.602 48.0879 144.323 48.0689C146.407 48.014 148.494 48.0273 150.808 48.0134C149.689 49.413 148.756 50.7728 147.625 51.9363C146.448 53.1496 146.065 54.272 146.851 55.9005C147.546 57.3382 147.893 58.9437 148.48 60.7307C146.674 60.083 145.019 59.6177 143.482 58.9001C142.052 58.2338 140.96 58.3416 139.759 59.3982C138.499 60.5088 137.052 61.4078 135.471 62.5566C135.51 61.2904 135.377 60.1993 135.606 59.1902C136.269 56.2552 135.369 54.2262 132.584 52.9633C131.618 52.5248 130.812 51.7297 129.717 50.9409C131.839 50.3634 133.729 49.8164 135.636 49.3493C136.55 49.1248 137.111 48.7484 137.372 47.7462C137.854 45.8937 138.524 44.0927 139.221 41.9377L139.219 41.938ZM141.091 55.717C140.09 56.1941 139.497 57.1424 139.939 57.6225C140.136 57.8374 140.794 57.9439 140.991 57.7857C141.743 57.1837 141.547 56.4401 141.091 55.717V55.717Z" fill="#FF6060"/>
<path d="M108.918 171.274C107.479 173.073 106.259 174.696 104.925 176.215C104.352 176.865 104.356 177.418 104.613 178.144C105.272 180.019 105.889 181.909 106.6 184.024C104.911 183.413 103.349 183.01 101.945 182.297C100.248 181.435 98.9401 181.614 97.5412 182.904C96.3707 183.984 94.9635 184.809 93.5245 185.846C93.6295 183.733 93.7005 181.785 93.8432 179.843C93.8672 179.526 94.2899 179.252 94.3666 178.921C94.4841 178.407 94.4621 177.861 94.4993 177.33C94.0803 177.355 93.661 177.393 93.2417 177.399C92.9158 177.404 92.5114 177.483 92.275 177.329C90.8358 176.383 89.4361 175.376 87.8009 174.237C89.4661 173.77 90.8968 173.21 92.3802 172.992C94.4142 172.695 95.5214 171.718 95.9071 169.668C96.1686 168.279 96.7654 166.953 97.2123 165.6C97.2217 165.569 97.262 165.547 97.4418 165.364C98.3076 167.089 99.9236 168.253 100.236 170.33C100.3 170.749 101.488 171.243 102.18 171.278C104.349 171.385 106.528 171.292 108.921 171.274L108.918 171.274Z" fill="#FF6060"/>
<path d="M145.876 166.032C148.196 165.393 150.229 164.876 152.228 164.249C152.672 164.111 153.147 163.658 153.342 163.228C153.745 162.343 153.888 161.339 154.288 160.454C154.688 159.574 155.275 158.78 155.889 157.77C157.039 159.457 158.01 160.968 159.086 162.4C159.361 162.769 159.958 163.085 160.417 163.098C162.514 163.156 164.616 163.099 167.002 163.079C165.465 164.991 164.095 166.702 162.703 168.397C162.605 168.516 162.327 168.546 162.145 168.521C160.774 168.338 160.305 168.933 160.792 170.331C161.363 170.075 161.93 169.816 162.572 169.527C163.267 171.615 163.933 173.606 164.671 175.822C163.014 175.224 161.451 174.828 160.051 174.114C158.352 173.248 157.027 173.441 155.625 174.707C154.464 175.755 153.1 176.579 151.827 177.503C151.712 177.465 151.595 177.426 151.48 177.388C151.708 176.067 151.945 174.75 152.154 173.426C152.194 173.171 152.146 172.896 152.098 172.637C152.047 172.359 151.84 172.065 151.892 171.82C152.146 170.64 151.638 169.968 150.653 169.358C149.093 168.394 147.635 167.265 145.878 166.029L145.876 166.032Z" fill="#FF6060"/>
<path d="M45.081 72.1575C44.9014 71.6107 44.7447 71.1293 44.5854 70.646C44.33 71.0709 44.1075 71.5186 43.8087 71.9107C43.5694 72.2235 43.238 72.4645 42.7244 72.5802C43.2425 71.6196 43.7434 70.65 44.2816 69.7025C48.5189 62.2541 53.7443 55.5798 59.9371 49.6641C60.4242 49.1975 60.8527 48.9154 61.5882 49.0797C62.4558 49.2735 63.3323 49.2053 63.8794 48.1102C63.5233 47.8673 63.1445 47.6094 62.5965 47.2356C78.442 33.6024 96.7852 26.6267 117.634 26.0214C116.792 26.9885 116.155 28.0276 114.545 28.112C101.318 28.7902 88.9655 32.5193 77.4739 39.0789C69.1025 43.857 61.789 49.9393 55.4776 57.2376C55.1221 57.6491 54.5574 57.8886 54.0672 58.1703C53.4333 58.534 52.801 58.8448 53.0918 59.7924C53.1544 59.9941 52.9532 60.3175 52.8034 60.5354C50.9569 63.2386 49.2339 66.0411 47.1814 68.5788C46.2689 69.707 46.1607 71.1957 45.0861 72.1613L45.081 72.1575Z" fill="#FF6060"/>
<path d="M81.1614 50.1451C82.4423 52.045 83.5947 53.6312 84.602 55.3064C85.0935 56.1228 85.6855 56.289 86.5401 56.2604C88.5179 56.1976 90.4969 56.2077 92.7523 56.1859C91.2458 58.0588 89.8925 59.7386 88.5434 61.4155C86.9378 60.3415 86.4033 60.3891 85.0492 61.8356C84.362 62.5683 83.7643 63.3845 83.1154 64.1781C85.0818 65.0413 86.5086 64.6646 88.3085 62.7504C88.6116 63.6071 88.8876 64.3851 89.1217 65.0432C88.8477 65.4661 88.645 65.7784 88.4423 66.0906C88.7235 66.2066 89.0153 66.3006 89.2801 66.4465C89.451 66.5414 89.6513 66.6826 89.7158 66.8497C89.943 67.4424 90.118 68.0539 90.4009 68.9294C88.679 68.3111 87.0833 67.9084 85.6545 67.1825C84.0091 66.3452 82.7587 66.6125 81.4231 67.7841C80.2175 68.8413 78.838 69.701 77.3648 70.7707C77.4627 68.462 77.5872 66.3417 77.609 64.2221C77.6131 63.7959 77.3357 63.2194 76.9981 62.9625C75.5021 61.8228 73.9348 60.7777 72.3961 59.692C72.1959 59.5509 72.0145 59.3819 71.6994 59.1218C73.7688 58.5564 75.6664 57.9877 77.5913 57.5318C78.4975 57.3175 78.9889 56.9144 79.2533 55.9849C79.7937 54.0784 80.4771 52.2137 81.1598 50.1499L81.1614 50.1451Z" fill="#FF6060"/>
<path d="M47.1475 173.308C46.1611 174.186 45.2192 175.023 44.21 175.918C38.8973 169.589 34.3963 162.651 30.7041 154.903C32.0365 154.715 33.2353 154.519 34.4406 154.403C34.6456 154.383 34.9825 154.651 35.0908 154.869C38.3675 161.514 42.4931 167.601 47.152 173.34C47.174 173.366 47.1755 173.41 47.1428 173.307L47.1475 173.308Z" fill="#FF6060"/>
<path d="M204.344 130.522C203.307 134.066 202.373 137.35 201.377 140.613C200.96 141.978 200.442 143.314 199.892 144.634C199.689 145.122 199.254 145.508 198.952 145.958C198.772 146.224 198.497 146.537 198.519 146.806C198.647 148.372 198.011 149.431 196.747 150.35C195.699 151.113 194.868 152.175 193.713 153.332C194.712 151.256 195.6 149.468 196.439 147.657C198.787 142.59 200.603 137.331 201.784 131.875C202.099 130.426 203.069 130.731 204.346 130.522L204.344 130.522Z" fill="#FF6060"/>
<path d="M42.0094 73.9613C42.7795 75.5737 43.3396 74.2297 44.2072 73.9522C43.7547 74.8921 43.369 75.6899 42.9888 76.4779C42.5625 76.4669 42.1707 76.4578 41.4624 76.4384C42.7592 77.883 41.8228 79.0031 41.3673 80.1814C40.8513 81.5147 40.5436 82.9811 39.7811 84.1523C38.9323 85.4568 38.9856 86.9252 38.5093 88.2803C38.014 89.6953 37.6921 91.1752 37.331 92.6355C36.8816 94.4582 36.9001 94.4602 34.8435 94.5639C36.3379 87.4048 38.7225 80.6172 42.0069 73.9594L42.0094 73.9613Z" fill="#FF6060"/>
<path d="M43.6738 137.436L39.8275 110.069L58.9099 107.387L59.6648 112.759L47.1972 114.511L47.986 120.124L59.4781 118.509L60.235 123.894L48.7428 125.509L49.5335 131.135L62.0011 129.383L62.7561 134.754L43.6738 137.436ZM69.7473 105.864L75.9601 113.807L76.1739 113.777L80.01 104.422L87.4131 103.381L81.0779 118.226L91.5266 130.711L83.9365 131.778L77.5768 123.76L77.363 123.79L73.4599 133.25L65.9231 134.309L72.4855 119.433L62.2907 106.912L69.7473 105.864ZM94.6803 130.268L90.8341 102.9L102.139 101.312C104.188 101.024 106.013 101.176 107.613 101.769C109.221 102.351 110.531 103.298 111.542 104.61C112.552 105.912 113.189 107.503 113.453 109.383C113.718 111.272 113.536 112.982 112.907 114.515C112.285 116.038 111.267 117.294 109.852 118.283C108.438 119.272 106.684 119.914 104.591 120.208L97.615 121.189L96.8826 115.977L102.629 115.17C103.626 115.029 104.435 114.739 105.054 114.297C105.683 113.855 106.127 113.297 106.386 112.625C106.645 111.943 106.715 111.184 106.598 110.346C106.479 109.5 106.202 108.794 105.768 108.228C105.333 107.653 104.754 107.244 104.029 107.001C103.304 106.758 102.448 106.705 101.459 106.844L98.1981 107.303L101.295 129.338L94.6803 130.268ZM121.997 98.5208L125.843 125.888L119.228 126.818L115.382 99.4505L121.997 98.5208ZM129.995 125.305L126.149 97.9372L137.454 96.3484C139.503 96.0604 141.324 96.1816 142.915 96.7119C144.515 97.2321 145.816 98.1212 146.819 99.3792C147.822 100.628 148.454 102.188 148.717 104.059C148.984 105.957 148.796 107.627 148.154 109.071C147.511 110.506 146.477 111.678 145.051 112.587C143.624 113.487 141.868 114.084 139.783 114.377L132.634 115.381L131.902 110.17L137.822 109.338C138.819 109.198 139.634 108.951 140.266 108.599C140.906 108.237 141.361 107.764 141.634 107.18C141.905 106.588 141.981 105.869 141.862 105.022C141.743 104.176 141.471 103.501 141.046 102.998C140.62 102.485 140.049 102.139 139.333 101.958C138.616 101.768 137.763 101.742 136.774 101.881L133.513 102.339L136.61 124.375L129.995 125.305ZM143.645 110.631L152.218 122.181L145.002 123.196L136.563 111.627L143.645 110.631ZM154.911 121.803L151.064 94.4356L170.147 91.7538L170.902 97.1257L158.434 98.8779L159.223 104.49L170.715 102.875L171.472 108.261L159.98 109.876L160.77 115.501L173.238 113.749L173.993 119.121L154.911 121.803ZM188.251 117.117L178.136 118.539L174.289 91.1716L184.392 89.7518C187.18 89.3599 189.658 89.5703 191.825 90.3831C194 91.1858 195.78 92.5346 197.163 94.4296C198.546 96.3157 199.437 98.6797 199.836 101.522C200.237 104.372 200.033 106.899 199.226 109.102C198.427 111.304 197.093 113.095 195.225 114.475C193.355 115.846 191.031 116.727 188.251 117.117ZM183.958 111.97L187.205 111.514C188.737 111.298 189.997 110.858 190.985 110.192C191.98 109.516 192.666 108.552 193.045 107.3C193.43 106.037 193.485 104.422 193.208 102.453C192.932 100.484 192.435 98.9551 191.719 97.8657C191.001 96.7674 190.067 96.0356 188.916 95.6704C187.774 95.295 186.418 95.2175 184.85 95.4379L181.697 95.8811L183.958 111.97Z" fill="#FF6060"/>
</svg>
